HIERARCHY
ROOT Hips
{
	OFFSET 40.341400 0.324488 83.936897
	CHANNELS 6 Xposition Yposition Zposition Xrotation Yrotation Zrotation
	JOINT spine
	{
		OFFSET 0.000000 -0.359108 6.244797
		CHANNELS 3 Xrotation Yrotation Zrotation
		JOINT spine1
		{
			OFFSET 0.000000 -0.000001 9.069412
			CHANNELS 3 Xrotation Yrotation Zrotation
			JOINT spine2
			{
				OFFSET 0.000000 -0.000001 8.690140
				CHANNELS 3 Xrotation Yrotation Zrotation
				JOINT Neck
				{
					OFFSET 0.000000 -1.063724 22.311195
					CHANNELS 3 Xrotation Yrotation Zrotation
					JOINT Head
					{
						OFFSET 0.000000 -0.000001 6.740814
						CHANNELS 3 Xrotation Yrotation Zrotation
						End Site
						{
							OFFSET 0.000000 5.380968 16.316498
						}
					}
				}
				JOINT RightShoulder
				{
					OFFSET -3.659161 0.509512 9.384682
					CHANNELS 3 Xrotation Yrotation Zrotation
					JOINT RightArm
					{
						OFFSET 0.000000 -0.000002 12.308899
						CHANNELS 3 Xrotation Yrotation Zrotation
						JOINT RightArmRoll
						{
							OFFSET 0.000000 -0.000001 6.213745
							CHANNELS 3 Xrotation Yrotation Zrotation
							JOINT RightForeArm
							{
								OFFSET 0.000000 -0.000003 18.098495
								CHANNELS 3 Xrotation Yrotation Zrotation
								JOINT RightForeArmRoll
								{
									OFFSET 0.000000 -0.000001 6.972794
									CHANNELS 3 Xrotation Yrotation Zrotation
									JOINT RightHand
									{
										OFFSET 0.000000 -0.000002 13.992905
										CHANNELS 3 Xrotation Yrotation Zrotation
										End Site
										{
											OFFSET 0.000000 -0.000000 0.100006
										}
									}
								}
							}
						}
					}
				}
				JOINT LeftShoulder
				{
					OFFSET 3.659161 0.509512 9.384682
					CHANNELS 3 Xrotation Yrotation Zrotation
					JOINT LeftArm
					{
						OFFSET 0.000000 -0.000002 12.308899
						CHANNELS 3 Xrotation Yrotation Zrotation
						JOINT LeftArmRoll
						{
							OFFSET 0.000000 -0.000001 6.213745
							CHANNELS 3 Xrotation Yrotation Zrotation
							JOINT LeftForeArm
							{
								OFFSET 0.000000 -0.000003 18.098495
								CHANNELS 3 Xrotation Yrotation Zrotation
								JOINT LeftForeArmRoll
								{
									OFFSET 0.000000 -0.000001 6.972794
									CHANNELS 3 Xrotation Yrotation Zrotation
									JOINT LeftHand
									{
										OFFSET 0.000000 -0.000002 13.992905
										CHANNELS 3 Xrotation Yrotation Zrotation
										End Site
										{
											OFFSET 0.000000 -0.000000 0.100006
										}
									}
								}
							}
						}
					}
				}
			}
		}
	}
	JOINT RightUpLeg
	{
		OFFSET -5.535160 0.851454 -1.014999
		CHANNELS 3 Xrotation Yrotation Zrotation
		JOINT RightUpLegRoll
		{
			OFFSET 0.000000 -0.000003 16.407501
			CHANNELS 3 Xrotation Yrotation Zrotation
			JOINT RightLeg
			{
				OFFSET 0.000000 0.000003 -20.318100
				CHANNELS 3 Xrotation Yrotation Zrotation
				JOINT RightLegRoll
				{
					OFFSET 0.000000 -0.000003 20.384598
					CHANNELS 3 Xrotation Yrotation Zrotation
					JOINT RightFoot
					{
						OFFSET 0.000000 -0.000003 16.966805
						CHANNELS 3 Xrotation Yrotation Zrotation
						JOINT RightToeBase
						{
							OFFSET 0.000000 -0.000002 14.183395
							CHANNELS 3 Xrotation Yrotation Zrotation
							End Site
							{
								OFFSET 0.006012 0.791745 6.868896
							}
						}
					}
				}
			}
		}
	}
	JOINT LeftUpLeg
	{
		OFFSET 5.535160 0.851454 -1.014999
		CHANNELS 3 Xrotation Yrotation Zrotation
		JOINT LeftUpLegRoll
		{
			OFFSET 0.000000 -0.000003 16.407600
			CHANNELS 3 Xrotation Yrotation Zrotation
			JOINT LeftLeg
			{
				OFFSET 0.000000 -0.000003 20.318100
				CHANNELS 3 Xrotation Yrotation Zrotation
				JOINT LeftLegRoll
				{
					OFFSET 0.000000 -0.000003 20.573105
					CHANNELS 3 Xrotation Yrotation Zrotation
					JOINT LeftFoot
					{
						OFFSET 0.000000 -0.000003 16.778305
						CHANNELS 3 Xrotation Yrotation Zrotation
						JOINT LeftToeBase
						{
							OFFSET 0.000000 -0.000002 14.183395
							CHANNELS 3 Xrotation Yrotation Zrotation
							End Site
							{
								OFFSET -0.026943 0.791744 6.868896
							}
						}
					}
				}
			}
		}
	}
}
MOTION
Frames: 10
Frame Time: 0.041667
40.093899 0.831186 83.952194 0.827117 -0.115009 -0.122946 -2.622551 0.032152 -0.010631 -1.217640 0.049796 -0.004860 0.427434 0.049723 -0.005585 17.526556 -1.518427 -0.278109 3.333455 1.007203 -0.313976 -14.587694 -40.117666 -16.656384 59.356489 -41.092563 92.756605 -0.000004 0.000003 -0.000011 2.893868 2.775364 -1.207558 -0.000010 -0.000013 -2.999999 -5.000166 -7.999938 0.000024 -15.460695 38.152863 17.769014 58.841520 39.854635 -89.867620 0.000000 0.000002 0.000000 2.027278 -5.125026 0.676050 -0.000005 0.000001 2.999991 -5.000184 7.999969 0.000000 -8.504683 178.510546 -1.013022 -179.999991 0.000005 -1.156004 165.032574 -2.104179 -0.995389 -0.000004 -0.000003 0.537422 73.520716 7.681881 -0.498964 25.456957 -7.355615 0.000010 -0.877135 -179.338078 -0.471748 -0.000005 0.000011 -1.132330 -10.291082 1.605268 0.867410 0.000002 0.000001 -0.313528 74.478282 -7.152927 -0.921698 25.842651 7.355613 -0.050098 
40.092899 0.832364 83.950096 0.825134 -0.115158 -0.120818 -2.622080 0.032026 -0.009718 -1.217740 0.050124 -0.003694 0.427337 0.050065 -0.004418 17.530434 -1.527282 -0.280251 3.327308 1.009696 -0.315474 -14.594224 -40.126275 -16.665484 59.347398 -41.088000 92.750083 -0.000004 0.000004 -0.000012 2.890723 2.775842 -1.207604 -0.000011 -0.000016 -3.000002 -5.000164 -7.999941 0.000023 -15.457200 38.146289 17.764195 58.852264 39.855127 -89.880310 0.000001 -0.000000 -0.000000 2.025547 -5.130404 0.676055 -0.000003 0.000003 2.999990 -5.000183 7.999970 -0.000005 -8.505320 178.511543 -1.011883 -179.999991 0.000005 -1.156005 165.028258 -2.105100 -0.995805 -0.000003 -0.000004 0.537442 73.522752 7.681993 -0.499788 25.456959 -7.355616 0.000010 -0.874842 -179.337067 -0.471582 -0.000005 0.000011 -1.132320 -10.290080 1.604997 0.867392 0.000002 0.000001 -0.313498 74.479484 -7.152878 -0.922113 25.840831 7.355619 -0.050034 
40.087002 0.839523 83.950493 0.822574 -0.115313 -0.118535 -2.621274 0.031693 -0.008763 -1.217450 0.050229 -0.002655 0.427623 0.050183 -0.003373 17.532886 -1.534375 -0.282366 3.321820 1.010141 -0.316699 -14.602289 -40.132798 -16.676417 59.341851 -41.082744 92.746299 -0.000004 0.000006 -0.000012 2.888204 2.776383 -1.207640 -0.000010 -0.000015 -3.000002 -5.000163 -7.999939 0.000017 -15.454963 38.140135 17.760947 58.864039 39.854434 -89.894783 -0.000001 -0.000001 0.000003 2.023792 -5.136920 0.676062 -0.000004 0.000000 2.999991 -5.000182 7.999969 -0.000007 -8.505798 178.512526 -1.010438 -179.999991 0.000005 -1.156005 165.023149 -2.106014 -0.995253 -0.000002 -0.000003 0.537463 73.525217 7.682050 -0.500646 25.456959 -7.355616 0.000011 -0.871942 -179.337067 -0.471380 -0.000005 0.000011 -1.132300 -10.289079 1.604609 0.867374 0.000002 0.000001 -0.313471 74.481014 -7.152840 -0.922610 25.838606 7.355619 -0.049964 
40.084099 0.840855 83.951492 0.819548 -0.115477 -0.116135 -2.620151 0.031185 -0.007781 -1.216840 0.050143 -0.001737 0.428228 0.050109 -0.002446 17.533939 -1.539879 -0.284441 3.316934 1.008837 -0.317675 -14.611265 -40.137426 -16.688599 59.339686 -41.076833 92.745165 -0.000004 0.000005 -0.000012 2.886264 2.776969 -1.207683 -0.000010 -0.000015 -2.999999 -5.000166 -7.999940 0.000024 -15.453460 38.134394 17.758825 58.876490 39.852866 -89.910486 0.000002 0.000002 -0.000002 2.022040 -5.144370 0.676067 -0.000003 0.000001 2.999988 -5.000181 7.999968 -0.000005 -8.506124 178.513510 -1.008758 -179.999991 0.000005 -1.156004 165.017439 -2.106921 -0.995720 -0.000004 -0.000003 0.537484 73.528011 7.682097 -0.501630 25.456957 -7.355616 0.000010 -0.868523 -179.336070 -0.471177 -0.000005 0.000011 -1.132280 -10.287976 1.604123 0.867354 0.000002 0.000001 -0.313446 74.482769 -7.152798 -0.923294 25.836082 7.355619 -0.049887 
40.086300 0.841803 83.952408 0.816151 -0.115655 -0.113655 -2.618811 0.030533 -0.006786 -1.215991 0.049899 -0.000935 0.429087 0.049876 -0.001631 17.533773 -1.543971 -0.286460 3.312625 1.006087 -0.318425 -14.620968 -40.140550 -16.701763 59.340219 -41.070467 92.746142 -0.000004 0.000005 -0.000010 2.884891 2.777552 -1.207722 -0.000012 -0.000011 -3.000001 -5.000165 -7.999938 0.000022 -15.452833 38.129118 17.757875 58.889536 39.850483 -89.927281 0.000000 0.000000 -0.000000 2.020298 -5.152484 0.676071 -0.000003 0.000001 2.999990 -5.000184 7.999968 -0.000006 -8.506320 178.514521 -1.006892 -179.999991 0.000005 -1.156004 165.011305 -2.108800 -0.995454 -0.000003 -0.000003 0.537504 73.530927 7.682187 -0.502718 25.456957 -7.355616 0.000011 -0.864680 -179.335086 -0.470959 -0.000005 0.000011 -1.132270 -10.286772 1.603578 0.867336 0.000003 0.000001 -0.313424 74.484736 -7.152759 -0.923964 25.833456 7.355610 -0.049829 
40.084599 0.843941 83.949203 0.812505 -0.115848 -0.111136 -2.617281 0.029768 -0.005794 -1.214940 0.049530 -0.000243 0.430134 0.049517 -0.000924 17.532696 -1.546850 -0.288396 3.308825 1.002157 -0.318972 -14.631285 -40.142214 -16.715623 59.343211 -41.063876 92.748969 -0.000004 0.000004 -0.000012 2.884042 2.778134 -1.207762 -0.000010 -0.000013 -2.999996 -5.000165 -7.999943 0.000021 -15.452912 38.124152 17.757862 58.902568 39.847546 -89.944323 -0.000000 -0.000001 -0.000000 2.018597 -5.161016 0.676073 -0.000003 0.000002 2.999988 -5.000186 7.999966 -0.000006 -8.506405 178.515504 -1.004907 -179.999991 0.000005 -1.156005 165.004789 -2.110663 -0.995212 -0.000003 -0.000003 0.537525 73.534056 7.682224 -0.503827 25.456959 -7.355616 0.000011 -0.860506 -179.334075 -0.470732 -0.000005 0.000011 -1.132250 -10.285468 1.603004 0.867319 0.000003 0.000001 -0.313403 74.486812 -7.152732 -0.924727 25.830527 7.355618 -0.049751 
40.091599 0.839562 83.950401 0.808713 -0.116060 -0.108617 -2.615640 0.028922 -0.004820 -1.213770 0.049069 0.000344 0.431306 0.049064 -0.000321 17.530813 -1.548697 -0.290231 3.305515 0.997351 -0.319339 -14.641900 -40.142835 -16.729824 59.348081 -41.057090 92.753218 -0.000006 0.000006 -0.000009 2.883705 2.778662 -1.207813 -0.000010 -0.000012 -3.000001 -5.000162 -7.999941 0.000026 -15.453479 38.119617 17.758564 58.915648 39.844230 -89.961719 0.000001 0.000001 -0.000000 2.016958 -5.169713 0.676074 -0.000003 -0.000001 2.999987 -5.000185 7.999966 -0.000002 -8.506412 178.516502 -1.002854 -179.999991 0.000005 -1.156005 164.998178 -2.111562 -0.995714 -0.000004 -0.000003 0.537545 73.537157 7.682234 -0.504740 25.456959 -7.355617 0.000010 -0.856096 -179.334062 -0.470483 -0.000005 0.000011 -1.132240 -10.284066 1.602410 0.867302 0.000002 0.000001 -0.313384 74.488902 -7.152701 -0.925490 25.827592 7.355617 -0.049690 
40.088997 0.842473 83.950394 0.804874 -0.116295 -0.106136 -2.613943 0.028027 -0.003879 -1.212540 0.048549 0.000830 0.432537 0.048550 0.000183 17.528222 -1.549702 -0.291947 3.302637 0.991960 -0.319549 -14.652451 -40.142565 -16.743959 59.354310 -41.050403 92.758463 -0.000005 0.000006 -0.000011 2.883834 2.779137 -1.207849 -0.000010 -0.000014 -3.000003 -5.000166 -7.999940 0.000021 -15.454645 38.115485 17.759984 58.928393 39.840661 -89.978658 -0.000000 -0.000002 0.000002 2.015399 -5.178343 0.676078 -0.000005 0.000001 2.999991 -5.000183 7.999968 -0.000006 -8.506339 178.517471 -1.000804 -179.999991 0.000005 -1.156004 164.991648 -2.113437 -0.995476 -0.000003 -0.000004 0.537566 73.540257 7.682240 -0.505851 25.456959 -7.355617 0.000010 -0.851539 -179.333064 -0.470247 -0.000005 0.000011 -1.132220 -10.282461 1.601828 0.867283 0.000003 0.000001 -0.313366 74.490992 -7.152672 -0.926152 25.824665 7.355615 -0.049619 
40.086700 0.845516 83.948502 0.801110 -0.116554 -0.103732 -2.612233 0.027113 -0.002986 -1.211310 0.048002 0.001222 0.433762 0.048009 0.000592 17.525321 -1.550050 -0.293516 3.300142 0.986272 -0.319625 -14.662710 -40.141544 -16.757649 59.361714 -41.043870 92.764528 -0.000004 0.000004 -0.000010 2.884405 2.779509 -1.207899 -0.000010 -0.000013 -3.000003 -5.000164 -7.999940 0.000018 -15.456004 38.111633 17.761743 58.940414 39.836990 -89.994853 0.000001 -0.000000 -0.000001 2.013959 -5.186657 0.676082 -0.000004 0.000000 2.999995 -5.000181 7.999967 -0.000003 -8.506224 178.518455 -0.998804 -179.999991 0.000005 -1.156005 164.985323 -2.115301 -0.996226 -0.000003 -0.000004 0.537586 73.543133 7.682248 -0.506746 25.456959 -7.355616 0.000011 -0.846927 -179.332067 -0.470012 -0.000005 0.000011 -1.132200 -10.280658 1.601296 0.867264 0.000001 0.000001 -0.313348 74.492960 -7.152631 -0.926923 25.821732 7.355615 -0.049547 
40.093201 0.842792 83.947304 0.797519 -0.116840 -0.101445 -2.610591 0.026213 -0.002156 -1.210160 0.047461 0.001524 0.434917 0.047473 0.000912 17.522119 -1.549916 -0.294927 3.297996 0.980578 -0.319591 -14.672488 -40.140178 -16.770669 59.369568 -41.037761 92.770751 -0.000005 0.000005 -0.000011 2.885400 2.779767 -1.207942 -0.000012 -0.000012 -3.000002 -5.000166 -7.999939 0.000023 -15.457587 38.108241 17.763825 58.951465 39.833574 -90.009777 -0.000002 0.000002 0.000002 2.012637 -5.194392 0.676088 -0.000003 0.000001 2.999994 -5.000181 7.999968 -0.000007 -8.506079 178.519466 -0.996937 -179.999991 0.000005 -1.156005 164.979313 -2.116205 -0.995709 -0.000004 -0.000003 0.537607 73.545797 7.682248 -0.507629 25.456957 -7.355617 0.000011 -0.842354 -179.331070 -0.469781 -0.000005 0.000011 -1.132190 -10.278754 1.600833 0.867248 0.000003 0.000001 -0.313331 74.494715 -7.152615 -0.927507 25.819006 7.355612 -0.049476 
